{"title":"Fall Out Boy Ft. Big Sean - The Mighty Fall [Music Video] 720p [","uid":10098977,"size":52734014,"categoryP":"video","categoryS":"music_videos","magnet":"?xt=urn:btih:9f0e0c208f54ee8ac741fb544c2bea3136a7a956&amp;dn=Fall+Out+Boy+Ft.+Big+Sean+-+The+Mighty+Fall+%5BMusic+Video%5D+720p+%5B&amp;tr=udp%3A%2F%2Ftracker.openbittorrent.com%3A80&amp;tr=udp%3A%2F%2Fopen.demonii.com%3A1337&amp;tr=udp%3A%2F%2Ftracker.coppersurfer.tk%3A6969&amp;tr=udp%3A%2F%2Fexodus.desync.com%3A6969","seeders":1,"leechers":8,"uploader":"Sbyky","files":1,"time":1399352955,"description":"\n\nGeneral\nComplete name                            : Fall Out Boy Ft. Big Sean - The Mighty Fall [Music Video] 720p [Sbyky].mp4\nFormat                                   : MPEG-4\nFormat profile                           : Base Media\nCodec ID                                 : isom\nFile size                                : 50.3 MiB\nDuration                                 : 4mn 11s\nOverall bit rate mode                    : Variable\nOverall bit rate                         : 1 677 Kbps\nEncoded date                             : UTC 2014-03-07 05:43:14\nTagged date                              : UTC 2014-03-07 05:43:14\n\nVideo\nID                                       : 1\nFormat                                   : AVC\nFormat/Info                              : Advanced Video Codec\nFormat profile                           : &lt;a class=&quot;__cf_email__&quot; href=&quot;/cdn-cgi/l/email-protection&quot; data-cfemail=&quot;cc81ada5a28c80ffe2fd&quot;&gt;[email&amp;#160;protected]&lt;/a&gt;&lt;script cf-hash='f9e31' type=&quot;text/javascript&quot;&gt;\n/* &lt;![CDATA[ */!function(){try{var t=&quot;currentScript&quot;in document?document.currentScript:function(){for(var t=document.getElementsByTagName(&quot;script&quot;),e=t.length;e--;)if(t[e].getAttribute(&quot;cf-hash&quot;))return t[e]}();if(t&amp;&amp;t.previousSibling){var e,r,n,i,c=t.previousSibling,a=c.getAttribute(&quot;data-cfemail&quot;);if(a){for(e=&quot;&quot;,r=parseInt(a.substr(0,2),16),n=2;a.length-n;n+=2)i=parseInt(a.substr(n,2),16)^r,e+=String.fromCharCode(i);e=document.createTextNode(e),c.parentNode.replaceChild(e,c)}}}catch(u){}}();/* ]]&gt; */&lt;/script&gt;\nFormat settings, CABAC                   : Yes\nFormat settings, ReFrames                : 3 frames\nCodec ID                                 : avc1\nCodec ID/Info                            : Advanced Video Coding\nDuration                                 : 4mn 11s\nBit rate                                 : 1 548 Kbps\nWidth                                    : 1 280 pixels\nHeight                                   : 720 pixels\nDisplay aspect ratio                     : 16:9\nFrame rate mode                          : Variable\nFrame rate                               : 23.976 fps\nMinimum frame rate                       : 23.974 fps\nMaximum frame rate                       : 957.447 fps\nColor space                              : YUV\nChroma subsampling                       : 4:2:0\nBit depth                                : 8 bits\nScan type                                : Progressive\nBits/(Pixel*Frame)                       : 0.070\nStream size                              : 46.4 MiB (92%)\nEncoded date                             : UTC 2014-03-07 05:43:14\nTagged date                              : UTC 2014-03-07 05:43:14\n\nAudio\nID                                       : 2\nFormat                                   : AAC\nFormat/Info                              : Advanced Audio Codec\nFormat profile                           : LC\nCodec ID                                 : 40\nDuration                                 : 4mn 11s\nBit rate mode                            : Variable\nBit rate                                 : 126 Kbps\nChannel(s)                               : 2 channels\nChannel positions                        : Front: L R\nSampling rate                            : 44.1 KHz\nCompression mode                         : Lossy\nStream size                              : 3.77 MiB (7%)\nEncoded date                             : UTC 2014-03-07 05:42:12\nTagged date                              : UTC 2014-03-07 05:42:12\n\nShared By Sbyky\n","torrent":{"xt":"urn:btih:9f0e0c208f54ee8ac741fb544c2bea3136a7a956","amp;dn":"Fall+Out+Boy+Ft.+Big+Sean+-+The+Mighty+Fall+%5BMusic+Video%5D+720p+%5B","amp;tr":["udp%3A%2F%2Ftracker.openbittorrent.com%3A80","udp%3A%2F%2Fopen.demonii.com%3A1337","udp%3A%2F%2Ftracker.coppersurfer.tk%3A6969","udp%3A%2F%2Fexodus.desync.com%3A6969"],"infoHash":"9f0e0c208f54ee8ac741fb544c2bea3136a7a956","infoHashBuffer":{"type":"Buffer","data":[159,14,12,32,143,84,238,138,199,65,251,84,76,43,234,49,54,167,169,86]},"announce":[],"urlList":[]}}